<svg xmlns="http://www.w3.org/2000/svg" width="72" height="72" viewBox="0 0 72 72">
    <g fill="none" fill-rule="nonzero">
        <path fill="#FB6C19" d="M36 72C16.155 72 0 55.845 0 36S16.155 0 36 0s36 16.155 36 36-16.155 36-36 36zm0-67.08C18.861 4.92 4.92 18.861 4.92 36c0 17.139 13.941 31.08 31.08 31.08 17.139 0 31.08-13.941 31.08-31.08C67.08 18.861 53.139 4.92 36 4.92z"/>
        <path fill="#F6B51C" d="M37 58c-9.342 0-17-7.937-17-17.62 0-1.348.996-2.38 2.297-2.38h29.406C53.005 38 54 39.032 54 40.38 54 50.064 46.343 58 37 58zM24.25 42.444c1.123 6.314 6.415 11.112 12.75 11.112s11.627-4.799 12.75-11.112h-25.5z"/>
        <path fill="#FB6C19" d="M51.33 30.457c-2.436 0-4.4-2.084-4.4-4.667 0-2.583 1.964-4.667 4.4-4.667 2.436 0 4.4 2.084 4.4 4.667 0 2.583-1.964 4.667-4.4 4.667zm0-5c-.157 0-.314.166-.314.333s.157.333.314.333.314-.166.314-.333-.157-.334-.314-.334zM23.33 30.457c-2.436 0-4.4-2.084-4.4-4.667 0-2.583 1.964-4.667 4.4-4.667 2.436 0 4.4 2.084 4.4 4.667 0 2.583-1.964 4.667-4.4 4.667zm0-5c-.157 0-.314.166-.314.333s.157.333.314.333.314-.166.314-.333-.157-.334-.314-.334z"/>
    </g>
</svg>
