<svg xmlns="http://www.w3.org/2000/svg" width="61" height="61" viewBox="0 0 61 61">
    <g fill="none" fill-rule="nonzero">
        <g fill="#F6B51C">
            <path d="M31.658 17.692l-5.534-5.605 3.073-3.033 5.533 5.605zM49.937 35.943L44.33 30.41l3.033-3.073 5.606 5.533zM40.788 26.797l-5.569-5.569 3.054-3.053 5.569 5.57z"/>
        </g>
        <path fill="#F57A33" d="M24.873 61c-1.147 0-2.222-.431-3.082-1.293l-4.373-4.383c-.788-.79-.86-1.94-.215-2.802 1.792-2.371 1.577-5.892-.645-8.12-2.078-2.155-5.59-2.442-8.1-.574-.86.647-2.078.575-2.795-.216L1.29 39.23C.502 38.44 0 37.433 0 36.284c0-1.15.43-2.3 1.29-3.162L33.26 1.293c1.72-1.724 4.372-1.724 6.02 0L59.71 21.77c.788.79 1.29 1.796 1.29 2.946 0 1.15-.43 2.3-1.29 3.161l-31.755 31.83c-.788.79-1.792 1.293-2.939 1.293h-.143zm-3.154-7.544l3.154 3.161L56.7 24.787 36.27 4.312 4.444 36.212l3.154 3.161c4.014-2.011 8.96-1.221 12.114 2.012 3.226 3.233 3.943 8.19 2.007 12.07zM34.765 2.802l1.505 1.509h.072l-1.577-1.509z"/>
    </g>
</svg>
