<svg xmlns="http://www.w3.org/2000/svg" width="132" height="44" viewBox="0 0 132 44">
    <g fill="none" fill-rule="evenodd" transform="translate(-4 -3)">
        <rect width="75" height="24" x="34" y="23" fill="#FF5F00" rx="12"/>
        <path fill="#FFF" d="M50.48 41C47.235 41 45 38.512 45 34.45c0-4.08 2.235-6.45 5.48-6.45 3.245 0 5.48 2.387 5.48 6.45 0 4.062-2.235 6.55-5.48 6.55zm0-2.167c1.821 0 2.98-1.71 2.98-4.384 0-2.691-1.159-4.3-2.98-4.3s-2.98 1.609-2.98 4.3c0 2.675 1.159 4.384 2.98 4.384zm7.88 1.93V28.237h2.5l3.56 6.67 1.226 2.708h.082c-.132-1.304-.314-2.963-.314-4.385v-4.993h2.318v12.526h-2.484l-3.543-6.703-1.241-2.692h-.083c.116 1.355.298 2.929.298 4.368v5.027H58.36zM76.822 35.6h2.914l-.364-1.37c-.38-1.304-.712-2.743-1.076-4.097h-.067a91.86 91.86 0 0 1-1.043 4.096l-.364 1.371zm4.305 5.163l-.861-3.216H76.29l-.86 3.216h-2.484l3.924-12.526h2.88l3.941 12.526h-2.566zm4.006 0V28.237h2.45v12.526h-2.45zm7.914-10.546v3.826h1.59c1.573 0 2.434-.677 2.434-2.014 0-1.355-.861-1.812-2.434-1.812h-1.59zM100 40.763h-2.732l-2.516-4.74h-1.706v4.74h-2.45V28.237h4.272c2.566 0 4.602.914 4.602 3.792 0 1.879-.927 3.047-2.334 3.605L100 40.763z"/>
        <g fill="#193651" fill-rule="nonzero" opacity=".2">
            <path d="M7.124 30.903c-.764.222-1.48-.191-1.67-.964-2.75-11.21 4.001-22.905 15.084-26.127.765-.222 1.48.19 1.67.964a1.43 1.43 0 0 1-1.006 1.742C11.648 9.296 5.758 19.498 8.13 29.16a1.43 1.43 0 0 1-1.006 1.742z"/>
            <path d="M16.114 30.954c-.764.222-1.48-.19-1.67-.964-1.944-7.924 2.868-16.26 10.703-18.537.764-.223 1.48.19 1.67.964a1.43 1.43 0 0 1-1.006 1.741c-6.306 1.834-10.185 8.552-8.62 14.93.118.897-.313 1.644-1.077 1.866zM28.713 21.09c-3.057.89-4.997 4.249-4.238 7.34a1.43 1.43 0 0 1-1.005 1.743c-.765.222-1.48-.191-1.67-.964-1.138-4.639 1.663-9.49 6.25-10.824.763-.222 1.48.19 1.669.964.261.648-.241 1.52-1.006 1.741z"/>
        </g>
        <g fill="#193651" fill-rule="nonzero" opacity=".2">
            <path d="M132.876 30.903c.764.222 1.48-.191 1.67-.964 2.75-11.21-4.001-22.905-15.084-26.127-.765-.222-1.48.19-1.67.964a1.43 1.43 0 0 0 1.006 1.742c9.554 2.778 15.444 12.98 13.072 22.643a1.43 1.43 0 0 0 1.006 1.742z"/>
            <path d="M123.886 30.954c.764.222 1.48-.19 1.67-.964 1.944-7.924-2.868-16.26-10.703-18.537-.764-.223-1.48.19-1.67.964a1.43 1.43 0 0 0 1.006 1.741c6.306 1.834 10.185 8.552 8.62 14.93-.118.897.313 1.644 1.077 1.866zM111.287 21.09c3.057.89 4.997 4.249 4.238 7.34a1.43 1.43 0 0 0 1.005 1.743c.765.222 1.48-.191 1.67-.964 1.138-4.639-1.663-9.49-6.25-10.824-.763-.222-1.48.19-1.669.964-.261.648.241 1.52 1.006 1.741z"/>
        </g>
    </g>
</svg>
