<svg xmlns="http://www.w3.org/2000/svg" width="78" height="47" viewBox="0 0 78 47">
    <g fill="none" fill-rule="nonzero">
        <g fill="#FB6C19">
            <path d="M69.014 18.605c2.136-1.998 3.45-4.715 3.45-7.751C72.465 4.94 67.454.067 61.374.067c-6.08 0-11.092 4.874-11.092 10.787 0 3.036 1.315 5.833 3.369 7.75-4.026 2.078-7.066 5.754-8.298 10.308-.329 1.279.493 2.557 1.807 2.957 1.315.32 2.63-.48 3.04-1.758 1.233-4.715 5.423-8.07 10.352-8.47.33 0 .576.08.904.08.247 0 .575 0 .822-.08 5.997.4 10.763 5.274 10.763 11.266v3.596c0 1.358 1.068 2.397 2.464 2.397 1.397 0 2.465-1.039 2.465-2.397v-3.596c-.082-6.232-3.697-11.586-8.955-14.302zM55.21 10.854c0-3.276 2.793-5.993 6.162-5.993 3.369 0 6.162 2.717 6.162 5.993 0 3.036-2.383 5.593-5.422 5.913h-1.48c-3.04-.32-5.422-2.877-5.422-5.913zM32.453 28.832c-1.15-4.554-4.272-8.15-8.298-10.227 2.136-1.998 3.45-4.715 3.45-7.751C27.606 4.94 22.595.067 16.515.067c-6.08 0-11.092 4.874-11.092 10.787a10.42 10.42 0 0 0 3.451 7.75C3.615 21.322 0 26.675 0 32.828v3.596c0 1.359 1.068 2.397 2.465 2.397 1.396 0 2.464-1.039 2.464-2.397v-3.596c0-5.912 4.766-10.787 10.763-11.266.247 0 .575.08.822.08.328 0 .575 0 .904-.08 4.93.4 9.037 3.676 10.27 8.39.328 1.278 1.643 2.077 3.04 1.758a2.328 2.328 0 0 0 1.725-2.877zm-22.1-17.978c0-3.276 2.793-5.993 6.161-5.993 3.369 0 6.162 2.717 6.162 5.993 0 3.036-2.382 5.593-5.422 5.913h-1.48c-3.04-.32-5.422-2.877-5.422-5.913z"/>
        </g>
        <path fill="#F6B51C" d="M47.135 26.656c2.134-2.01 3.447-4.745 3.447-7.8C50.582 12.906 45.575 8 39.5 8c-6.075 0-11.082 4.905-11.082 10.856a10.52 10.52 0 0 0 3.448 7.8C26.612 29.39 23 34.777 23 40.969v3.619C23 45.955 24.067 47 25.463 47c1.395 0 2.462-1.045 2.462-2.412v-3.619c0-5.95 4.762-10.856 10.754-11.258h1.641c5.993.402 10.755 5.308 10.755 11.258v3.619c0 1.367 1.067 2.412 2.462 2.412C54.933 47 56 45.955 56 44.588v-3.619c0-6.192-3.612-11.58-8.865-14.313zm-13.792-7.8c0-3.297 2.791-6.031 6.157-6.031s6.157 2.734 6.157 6.03c0 3.056-2.38 5.63-5.418 5.951h-1.478c-3.037-.321-5.418-2.895-5.418-5.95z"/>
    </g>
</svg>
