<svg xmlns="http://www.w3.org/2000/svg" xmlns:xlink="http://www.w3.org/1999/xlink" width="121" height="121" viewBox="0 0 121 121">
    <defs>
        <path id="b" d="M19 14h59v73H19z"/>
        <filter id="a" width="123.7%" height="119.2%" x="-11.9%" y="-12.3%" filterUnits="objectBoundingBox">
            <feOffset dy="-2" in="SourceAlpha" result="shadowOffsetOuter1"/>
            <feGaussianBlur in="shadowOffsetOuter1" result="shadowBlurOuter1" stdDeviation="2"/>
            <feColorMatrix in="shadowBlurOuter1" values="0 0 0 0 0 0 0 0 0 0 0 0 0 0 0 0 0 0 0.217815897 0"/>
        </filter>
    </defs>
    <g fill="none" fill-rule="evenodd" transform="translate(-900 -2149)">
        <path fill="#EDEDED" d="M-4 1863h1928v734H-4z"/>
        <rect width="208" height="322" x="856" y="2124" fill="#FFF" rx="4"/>
        <g transform="translate(900 2149)">
            <circle cx="60.5" cy="60.5" r="60.5" fill="#F6F6F6"/>
            <path fill="#FFB78D" d="M64.82 23.168L95.831 54.18a3.987 3.987 0 0 1 0 5.638L64.82 90.832a3.987 3.987 0 0 1-5.638 0L28.168 59.82a3.987 3.987 0 0 1 0-5.638L59.18 23.168a3.987 3.987 0 0 1 5.638 0z"/>
            <path fill="#F7B188" d="M30 54h63a4 4 0 0 1 4 4v43a4 4 0 0 1-4 4H30a4 4 0 0 1-4-4V58a4 4 0 0 1 4-4z"/>
            <g transform="translate(14 14)">
                <use fill="#000" filter="url(#a)" xlink:href="#b"/>
                <use fill="#FFF" xlink:href="#b"/>
            </g>
            <path fill="#FF7626" d="M59.003 89.987a3.983 3.983 0 0 1 .988-1.627l31.205-31.206a4 4 0 0 1 5.657 0L97 57.3v32.687H59.003z"/>
            <path fill="#FF7626" d="M64 90H26V57.299l.122-.122a4.023 4.023 0 0 1 5.687 0l31.195 31.179c.477.476.809 1.042.996 1.644z"/>
            <path fill="#FF7626" d="M97 82v19a4 4 0 0 1-4 4H30a4 4 0 0 1-4-4V82h71z"/>
            <path fill="#E05707" d="M92.163 105h-63.14l28.741-28.742a4 4 0 0 1 5.657 0L92.163 105z"/>
            <text fill="#535353" font-family="NotoSansCJKkr-Bold, Noto Sans CJK KR" font-size="9" font-weight="bold" transform="translate(14 14)">
                <tspan x="28" y="34">신청메세지</tspan>
            </text>
            <path fill="#535353" d="M42 52h41v1H42z"/>
            <path stroke="#DBDBDB" stroke-linecap="square" d="M41.5 14.5l2.523 6.523M83.5 15.5l-3.477 5.523M14.5 41.5h7M98.5 41.5h7"/>
        </g>
        <text fill="#4F4F4F" font-family="NotoSansCJKkr-Bold, Noto Sans CJK KR" font-size="24" font-weight="bold">
            <tspan x="907.432" y="2178">3</tspan>
        </text>
    </g>
</svg>
